# xmcd
# Copyright (C) 1995-1998 Ti Kan
#
# Track frame offsets:
#       150
#       14174
#       30876
#
# Disc length: 675 seconds
#
# Revision: 0
# Processed by: cddbd v1.5PL3 Copyright (c) Steve Scherf et al.
# Submitted via: CD-Transfer v1.0
#
DISCID=1902a103
DTITLE=Robb Cole - 
DYEAR=2004
DGENRE=
TTITLE0=This Night
TTITLE1=Prisoner
TTITLE2=This Night
EXTD=
EXTT0=
EXTT1=
EXTT2=
PLAYORDER=
